<?xml version="1.0" encoding="utf-8"?>
<!-- Generator: Adobe Illustrator 23.0.3, SVG Export Plug-In . SVG Version: 6.00 Build 0)  -->
<svg version="1.1" id="Capa_1" focusable="false" xmlns="http://www.w3.org/2000/svg" xmlns:xlink="http://www.w3.org/1999/xlink"
	 x="0px" y="0px" viewBox="0 0 512 512" style="enable-background:new 0 0 512 512;" xml:space="preserve">
<style type="text/css">
	.st0{fill:#FFFFFF;}
</style>
<path class="st0" d="M435.6,210.5c2.7-2.2,6.8-0.1,6.8,3.3v142.7c0,18.5-15,33.5-33.5,33.5H118.5C100,390,85,375,85,356.5V213.8
	c0-3.5,4-5.4,6.8-3.3c15.6,12.1,36.4,27.6,107.5,79.3c14.7,10.7,39.6,33.4,64.3,33.2c24.9,0.2,50.3-22.9,64.4-33.2
	C399.3,238.1,419.9,222.6,435.6,210.5z M263.7,300.7c16.2,0.3,39.5-20.4,51.2-28.9c92.6-67.2,99.7-73.1,121-89.8
	c4-3.1,6.4-8,6.4-13.2v-13.3c0-18.5-15-33.5-33.5-33.5H118.5C100,122,85,137,85,155.5v13.3c0,5.2,2.4,10,6.4,13.2
	c21.4,16.7,28.4,22.6,121,89.8C224.2,280.3,247.5,300.9,263.7,300.7L263.7,300.7z"/>
</svg>
