<?xml version="1.0" encoding="utf-8"?>
<!-- Generator: Adobe Illustrator 23.0.3, SVG Export Plug-In . SVG Version: 6.00 Build 0)  -->
<svg version="1.1" id="Capa_1" focusable="false" xmlns="http://www.w3.org/2000/svg" xmlns:xlink="http://www.w3.org/1999/xlink"
	 x="0px" y="0px" viewBox="0 0 448 512" style="enable-background:new 0 0 448 512;" xml:space="preserve">
<style type="text/css">
	.st0{fill:#FFFFFF;}
</style>
<path class="st0" d="M354.1,125.8c-34.3-34.4-80-53.3-128.6-53.3c-100.3,0-181.9,81.6-181.9,181.9c0,32,8.4,63.3,24.2,90.9
	l-25.8,94.2l96.4-25.3c26.5,14.5,56.4,22.1,86.9,22.1h0.1c100.2,0,183.6-81.6,183.6-181.9C409.1,205.9,388.4,160.2,354.1,125.8z
	 M225.5,405.7c-27.2,0-53.8-7.3-77-21.1l-5.5-3.3l-57.2,15l15.2-55.8l-3.6-5.7c-15.2-24.1-23.1-51.9-23.1-80.4
	c0-83.3,67.8-151.1,151.2-151.1c40.4,0,78.3,15.7,106.8,44.3s46,66.5,46,106.9C378.3,337.8,308.8,405.7,225.5,405.7z M308.4,292.5
	c-4.5-2.3-26.9-13.3-31-14.7c-4.2-1.6-7.2-2.3-10.2,2.3c-3,4.6-11.7,14.7-14.4,17.9c-2.6,3-5.3,3.4-9.8,1.1
	c-26.7-13.4-44.2-23.8-61.8-54.1c-4.7-8,4.7-7.5,13.4-24.8c1.5-3,0.7-5.7-0.4-7.9c-1.1-2.3-10.2-24.7-14-33.8
	c-3.7-8.8-7.5-7.6-10.2-7.8c-2.6-0.2-5.7-0.2-8.7-0.2c-3,0-7.9,1.1-12.1,5.7c-4.2,4.6-15.9,15.6-15.9,37.9s16.3,44,18.5,47
	c2.3,3,32,48.9,77.7,68.6c28.8,12.5,40.1,13.5,54.6,11.4c8.8-1.3,26.9-11,30.6-21.6c3.8-10.6,3.8-19.7,2.6-21.6
	C315.9,295.8,312.9,294.7,308.4,292.5z"/>
</svg>
